<!--Scalable Vector Graphic-->
<svg version="1.1" 
     xmlns="http://www.w3.org/2000/svg" 
     xmlns:xlink="http://www.w3.org/1999/xlink" x="0px" y="0px"
	 viewBox="0 0 800 80" 
     style="enable-background:new 0 0 800 80;" 
     xml:space="preserve">
    <g>
        <path d="M91.15,59.64H31.03L19.51,79.51H0L45.86,0.49h30.46l45.86,79.03h-19.51L91.15,59.64z M82.14,44.06L61.15,7.82l-21.1,36.24
		H82.14z"/>
        <path d="M257.72,79.51h-18.48l-67.88-57.69v57.69h-18.02V0.49h18.48l67.88,57.8V0.49h18.02V79.51z"/>
        <path d="M299.85,0.49h74.7v14.7h-28.33v49.63h28.33v14.7h-74.7v-14.7h28.34V15.18h-28.34V0.49z"/>
        <path d="M665.11,59.64h-60.12l-11.52,19.87h-19.51l45.86-79.03h30.46l45.86,79.03h-19.51L665.11,59.64z M656.1,44.06L635.11,7.82
		L614,44.06H656.1z"/>
        <path d="M800,79.51h-70.01V0.49h18.02v62.99H800V79.51z"/>
        <path d="M479.13,58.86L516.55,0h24.3v80h-18.02V22.17L495.1,68.12h-31.94l-27.72-45.95V80h-18.02V0h24.3L479.13,58.86z"/>
    </g>
</svg>
